<?xml version="1.0" encoding="UTF-8"?>
<svg width="114px" height="20px" viewBox="0 0 114 20" version="1.1" xmlns="http://www.w3.org/2000/svg" xmlns:xlink="http://www.w3.org/1999/xlink">
    <!-- Generator: Sketch 52.6 (67491) - http://www.bohemiancoding.com/sketch -->
    <title>elephant-logo-with-text-white</title>
    <desc>Created with Sketch.</desc>
    <g id="elephant-logo-with-text-white" stroke="none" stroke-width="1" fill="none" fill-rule="evenodd">
        <g id="red-elephant" transform="translate(1.000000, 1.000000)">
            <g>
                <path d="M15.378,17.341 L13.15,17.341 C12.674,15.925 11.336,14.904 9.759,14.904 C8.182,14.904 6.844,15.925 6.368,17.341 L3.118,17.341 C2.391,16.3 1.904,15.08 1.734,13.761 C1.098,13.721 0.596,13.194 0.596,12.549 C0.596,11.886 1.126,11.348 1.786,11.335 C1.792,11.292 1.8,11.25 1.807,11.209 C2.362,8.264 4.513,5.883 7.326,4.997 C7.252,5.543 7.214,6.097 7.214,6.658 C7.214,7.75 7.349,8.826 7.619,9.859 C7.886,10.885 8.283,11.855 8.808,12.741 C9.765,14.353 10.924,13.894 12.378,13.318 C13.14,13.015 14.064,12.65 14.873,12.995 C15.311,13.183 15.684,13.497 15.945,13.893 C16.195,14.272 16.341,14.73 16.341,15.225 C16.341,16.08 15.955,16.754 15.378,17.341 Z M12.424,0.353 C13.902,0.353 15.307,0.668 16.575,1.234 C16.803,3.903 18.957,6.021 21.641,6.193 C22.263,7.51 22.613,8.982 22.614,10.535 C22.614,13.068 21.689,15.468 20.012,17.341 L16.84,17.341 C17.271,16.747 17.526,16.016 17.526,15.225 C17.526,13.737 16.624,12.458 15.336,11.908 C12.878,10.858 10.728,13.659 9.827,12.139 C8.878,10.541 8.399,8.649 8.399,6.658 C8.399,4.428 9.049,2.35 10.17,0.603 C10.896,0.44 11.65,0.353 12.424,0.353 Z M19.668,9.853 C20.277,9.853 20.77,10.346 20.77,10.954 C20.77,11.563 20.277,12.056 19.668,12.056 C19.06,12.056 18.567,11.563 18.567,10.954 C18.567,10.346 19.06,9.853 19.668,9.853 Z" id="Fill-10" fill="#D90845"></path>
                <path d="M15.378,17.341 L13.15,17.341 C12.674,15.925 11.336,14.904 9.759,14.904 C8.182,14.904 6.844,15.925 6.368,17.341 L3.118,17.341 C3.105,17.118 3.096,16.893 3.096,16.666 C3.096,13.21 4.749,10.139 7.306,8.201 C7.373,8.763 7.477,9.317 7.619,9.859 C7.886,10.885 8.283,11.855 8.808,12.741 C9.765,14.353 10.924,13.894 12.378,13.318 C13.14,13.015 14.064,12.65 14.873,12.995 C15.311,13.183 15.684,13.497 15.945,13.893 C16.195,14.272 16.341,14.73 16.341,15.225 C16.341,16.08 15.955,16.754 15.378,17.341 Z M13.713,6.049 C17.438,6.049 20.713,7.967 22.608,10.869 C22.531,13.278 21.615,15.551 20.012,17.341 L16.84,17.341 C17.271,16.747 17.526,16.016 17.526,15.225 C17.526,13.737 16.624,12.458 15.336,11.908 C12.878,10.858 10.728,13.659 9.827,12.139 C9.006,10.757 8.537,9.154 8.425,7.458 C9.982,6.562 11.788,6.049 13.713,6.049 Z" id="Fill-11" fill="#990531"></path>
                <path d="M19.668,9.853 C20.277,9.853 20.77,10.346 20.77,10.954 C20.77,11.563 20.277,12.056 19.668,12.056 C19.06,12.056 18.567,11.563 18.567,10.954 C18.567,10.346 19.06,9.853 19.668,9.853 Z" id="Path" fill="#FFFFFF"></path>
            </g>
        </g>
        <path d="M29.4023438,10.0429688 L29.4023438,13.6464844 L30.421875,13.6464844 C31.0976596,13.6464844 31.5761705,13.5039077 31.8574219,13.21875 C32.1386733,12.9335923 32.2792969,12.4589877 32.2792969,11.7949219 C32.2792969,11.1542937 32.1503919,10.7021498 31.8925781,10.4384766 C31.6347643,10.1748034 31.1875032,10.0429688 30.5507812,10.0429688 L29.4023438,10.0429688 Z M27.7324219,8.67773438 L30.9492188,8.67773438 C31.9179736,8.67773438 32.6738254,8.96288777 33.2167969,9.53320312 C33.7597683,10.1035185 34.03125,10.8984324 34.03125,11.9179688 C34.03125,12.3359396 33.9746099,12.7197248 33.8613281,13.0693359 C33.7480463,13.4189471 33.576173,13.7382798 33.3457031,14.0273438 C33.0722643,14.3750017 32.7441425,14.6240227 32.3613281,14.7744141 C31.9785137,14.9248054 31.4707063,15 30.8378906,15 L29.4023438,15 L29.4023438,17.2910156 L27.7324219,17.2910156 L27.7324219,8.67773438 Z M35.0507812,6.38671875 L36.7089844,6.38671875 L36.7089844,8.67773438 L38.1914062,8.67773438 C39.1210984,8.67773438 39.7939432,8.86034974 40.2099609,9.22558594 C40.6259786,9.59082214 40.8339844,10.1796834 40.8339844,10.9921875 L40.8339844,15 L39.1523438,15 L39.1523438,11.1855469 C39.1523438,10.751951 39.073243,10.457032 38.9150391,10.3007812 C38.7568351,10.1445305 38.4648459,10.0664062 38.0390625,10.0664062 L36.7089844,10.0664062 L36.7089844,15 L35.0507812,15 L35.0507812,6.38671875 Z M43.9570312,10.0429688 L43.9570312,13.6464844 L44.9765625,13.6464844 C45.6523471,13.6464844 46.130858,13.5039077 46.4121094,13.21875 C46.6933608,12.9335923 46.8339844,12.4589877 46.8339844,11.7949219 C46.8339844,11.1542937 46.7050794,10.7021498 46.4472656,10.4384766 C46.1894518,10.1748034 45.7421907,10.0429688 45.1054688,10.0429688 L43.9570312,10.0429688 Z M42.2871094,8.67773438 L45.5039062,8.67773438 C46.4726611,8.67773438 47.2285129,8.96288777 47.7714844,9.53320312 C48.3144558,10.1035185 48.5859375,10.8984324 48.5859375,11.9179688 C48.5859375,12.3359396 48.5292974,12.7197248 48.4160156,13.0693359 C48.3027338,13.4189471 48.1308605,13.7382798 47.9003906,14.0273438 C47.6269518,14.3750017 47.29883,14.6240227 46.9160156,14.7744141 C46.5332012,14.9248054 46.0253938,15 45.3925781,15 L43.9570312,15 L43.9570312,17.2910156 L42.2871094,17.2910156 L42.2871094,8.67773438 Z M49.3535156,13.5 L50.7949219,13.5 L50.7949219,15 L49.3535156,15 L49.3535156,13.5 Z M53.6660156,6.38671875 L53.6660156,8.67773438 L55.1015625,8.67773438 C55.7343782,8.67773438 56.2421856,8.75292894 56.625,8.90332031 C57.0078144,9.05371169 57.3359361,9.30273264 57.609375,9.65039062 C57.8398449,9.93945457 58.0117182,10.2587873 58.125,10.6083984 C58.2382818,10.9580096 58.2949219,11.3417948 58.2949219,11.7597656 C58.2949219,12.7753957 58.0234402,13.5693331 57.4804688,14.1416016 C56.9374973,14.71387 56.1816455,15 55.2128906,15 L51.9960938,15 L51.9960938,6.38671875 L53.6660156,6.38671875 Z M54.6855469,10.0429688 L53.6660156,10.0429688 L53.6660156,13.6464844 L54.8144531,13.6464844 C55.4511751,13.6464844 55.8984362,13.5126967 56.15625,13.2451172 C56.4140638,12.9775377 56.5429688,12.5234407 56.5429688,11.8828125 C56.5429688,11.2226529 56.4013686,10.750978 56.1181641,10.4677734 C55.8349595,10.1845689 55.3574252,10.0429688 54.6855469,10.0429688 Z M61.6640625,13.7285156 L63.7558594,13.7285156 L63.7558594,12.421875 L61.7871094,12.421875 C61.3964824,12.421875 61.1269539,12.4746088 60.9785156,12.5800781 C60.8300774,12.6855474 60.7558594,12.8691393 60.7558594,13.1308594 C60.7558594,13.3535167 60.8154291,13.5087886 60.9345703,13.5966797 C61.0537115,13.6845708 61.2968732,13.7285156 61.6640625,13.7285156 Z M59.4433594,8.67773438 L62.8652344,8.67773438 C63.7285199,8.67773438 64.3789041,8.87597458 64.8164062,9.27246094 C65.2539084,9.66894729 65.4726562,10.2578086 65.4726562,11.0390625 L65.4726562,15 L60.984375,15 C60.3554656,15 59.872072,14.8417985 59.5341797,14.5253906 C59.1962874,14.2089828 59.0273438,13.7597685 59.0273438,13.1777344 C59.0273438,12.4589808 59.2216777,11.9433609 59.6103516,11.6308594 C59.9990254,11.3183578 60.6445267,11.1621094 61.546875,11.1621094 L63.7441406,11.1621094 L63.7441406,11.0039062 C63.7441406,10.6289044 63.6337902,10.3652351 63.4130859,10.2128906 C63.1923817,10.0605461 62.798831,9.984375 62.2324219,9.984375 L59.4433594,9.984375 L59.4433594,8.67773438 Z M66.9316406,8.67773438 L69.7382812,8.67773438 C70.3945345,8.67773438 70.8544909,8.79589726 71.1181641,9.03222656 C71.3818373,9.26855587 71.5136719,9.68163768 71.5136719,10.2714844 L71.5136719,11.3261719 L69.9199219,11.3261719 L69.9199219,10.5117188 C69.9199219,10.2656238 69.875977,10.1005864 69.7880859,10.0166016 C69.7001949,9.93261677 69.5000016,9.890625 69.1875,9.890625 L68.6015625,9.890625 L68.6015625,15 L66.9316406,15 L66.9316406,8.67773438 Z M76.0195312,13.6464844 L77.7949219,13.6464844 L77.7949219,15 L75.5273438,15 C74.9531221,15 74.4814472,14.9404303 74.1123047,14.8212891 C73.7431622,14.7021478 73.4218764,14.509767 73.1484375,14.2441406 C72.8554673,13.9550767 72.6259774,13.6025411 72.4599609,13.1865234 C72.2939445,12.7705057 72.2109375,12.3300804 72.2109375,11.8652344 C72.2109375,11.3769507 72.2929679,10.9209006 72.4570312,10.4970703 C72.6210946,10.0732401 72.851561,9.71875143 73.1484375,9.43359375 C73.4257826,9.16796742 73.7509747,8.97558653 74.1240234,8.85644531 C74.4970722,8.73730409 74.9648409,8.67773438 75.5273438,8.67773438 L77.7949219,8.67773438 L77.7949219,10.0429688 L76.0195312,10.0429688 C75.2343711,10.0429688 74.6933609,10.1787096 74.3964844,10.4501953 C74.0996079,10.721681 73.9511719,11.193356 73.9511719,11.8652344 C73.9511719,12.2519551 74.0117181,12.5722644 74.1328125,12.8261719 C74.2539069,13.0800794 74.441405,13.2851555 74.6953125,13.4414062 C74.8203131,13.5156254 74.9658195,13.5683592 75.1318359,13.5996094 C75.2978524,13.6308595 75.5937479,13.6464844 76.0195312,13.6464844 Z M81.7148438,15 C80.6679635,15 79.8759792,14.7334011 79.3388672,14.2001953 C78.8017551,13.6669895 78.5332031,12.8808646 78.5332031,11.8417969 C78.5332031,10.8027292 78.8027317,10.0156277 79.3417969,9.48046875 C79.8808621,8.94530982 80.6718698,8.67773438 81.7148438,8.67773438 L84.1523438,8.67773438 L84.1523438,9.99609375 L81.9433594,9.99609375 C81.3378876,9.99609375 80.9306651,10.0820304 80.7216797,10.2539062 C80.5126943,10.4257821 80.4003907,10.7363259 80.3847656,11.1855469 L84.1523438,11.1855469 L84.1523438,12.5039062 L80.3847656,12.5039062 C80.4003907,12.9570335 80.5048818,13.2666007 80.6982422,13.4326172 C80.8916025,13.5986336 81.3027312,13.6816406 81.9316406,13.6816406 L84.1523438,13.6816406 L84.1523438,15 L81.7148438,15 Z M86.9355469,15 L85.1953125,15 L85.1953125,6.38671875 L86.9355469,6.38671875 L86.9355469,15 Z M89.6953125,11.8417969 C89.6953125,12.4433624 89.8359361,12.9121077 90.1171875,13.2480469 C90.3984389,13.5839861 90.7910131,13.7519531 91.2949219,13.7519531 C91.7949244,13.7519531 92.1874986,13.5839861 92.4726562,13.2480469 C92.7578139,12.9121077 92.9003906,12.4433624 92.9003906,11.8417969 C92.9003906,11.2402314 92.7587905,10.7724626 92.4755859,10.4384766 C92.1923814,10.1044905 91.7988306,9.9375 91.2949219,9.9375 C90.7949194,9.9375 90.4033217,10.1054671 90.1201172,10.4414062 C89.8369126,10.7773454 89.6953125,11.2441376 89.6953125,11.8417969 Z M94.6523438,11.8417969 C94.6523438,12.8339893 94.350589,13.6259736 93.7470703,14.2177734 C93.1435517,14.8095733 92.3300832,15.1054688 91.3066406,15.1054688 C90.283198,15.1054688 89.4667999,14.8085967 88.8574219,14.2148438 C88.2480438,13.6210908 87.9433594,12.8300831 87.9433594,11.8417969 C87.9433594,10.8496044 88.2480438,10.055667 88.8574219,9.45996094 C89.4667999,8.86425483 90.283198,8.56640625 91.3066406,8.56640625 C92.3222707,8.56640625 93.133786,8.86425483 93.7412109,9.45996094 C94.3486358,10.055667 94.6523438,10.8496044 94.6523438,11.8417969 Z M95.671875,8.67773438 L98.8125,8.67773438 C99.7617235,8.67773438 100.439451,8.85644353 100.845703,9.21386719 C101.251955,9.57129085 101.455078,10.1640584 101.455078,10.9921875 L101.455078,15 L99.7851562,15 L99.7851562,11.1972656 C99.7851562,10.724607 99.7119148,10.4179695 99.5654297,10.2773438 C99.4189446,10.136718 99.1250022,10.0664062 98.6835938,10.0664062 L97.3417969,10.0664062 L97.3417969,15 L95.671875,15 L95.671875,8.67773438 Z M105.222656,13.7285156 L107.314453,13.7285156 L107.314453,12.421875 L105.345703,12.421875 C104.955076,12.421875 104.685548,12.4746088 104.537109,12.5800781 C104.388671,12.6855474 104.314453,12.8691393 104.314453,13.1308594 C104.314453,13.3535167 104.374023,13.5087886 104.493164,13.5966797 C104.612305,13.6845708 104.855467,13.7285156 105.222656,13.7285156 Z M103.001953,8.67773438 L106.423828,8.67773438 C107.287114,8.67773438 107.937498,8.87597458 108.375,9.27246094 C108.812502,9.66894729 109.03125,10.2578086 109.03125,11.0390625 L109.03125,15 L104.542969,15 C103.914059,15 103.430666,14.8417985 103.092773,14.5253906 C102.754881,14.2089828 102.585938,13.7597685 102.585938,13.1777344 C102.585938,12.4589808 102.780271,11.9433609 103.168945,11.6308594 C103.557619,11.3183578 104.20312,11.1621094 105.105469,11.1621094 L107.302734,11.1621094 L107.302734,11.0039062 C107.302734,10.6289044 107.192384,10.3652351 106.97168,10.2128906 C106.750975,10.0605461 106.357425,9.984375 105.791016,9.984375 L103.001953,9.984375 L103.001953,8.67773438 Z" id="php.barcelona" fill="#FFFFFF"></path>
    </g>
</svg>